<?xml version="1.0" standalone="no"?>
<!DOCTYPE svg PUBLIC "-//W3C//DTD SVG 20010904//EN"
 "http://www.w3.org/TR/2001/REC-SVG-20010904/DTD/svg10.dtd">
<svg version="1.0" xmlns="http://www.w3.org/2000/svg"
 width="1563.000000pt" height="1563.000000pt" viewBox="0 0 1563.000000 1563.000000"
 preserveAspectRatio="xMidYMid meet">

<g transform="translate(0.000000,1563.000000) scale(0.100000,-0.100000)"
fill="#83712A" stroke="none">
<path d="M10710 14316 c-281 -36 -502 -84 -613 -136 -34 -15 -80 -36 -102 -45
-22 -10 -81 -45 -132 -77 -92 -59 -171 -138 -302 -298 -180 -219 -265 -295
-396 -349 -58 -25 -66 -26 -295 -26 l-235 0 -66 -31 c-71 -34 -120 -79 -174
-159 -42 -64 -370 -712 -449 -888 -31 -71 -55 -134 -53 -140 2 -6 13 15 26 45
12 31 29 59 36 62 8 3 28 31 45 63 17 32 44 80 61 107 16 27 46 78 65 115 20
36 42 73 48 81 17 20 214 349 261 435 63 115 122 173 209 205 68 26 92 22 45
-8 -42 -26 -136 -120 -179 -180 -65 -91 -427 -711 -535 -917 -48 -91 -61 -110
-78 -107 -12 1 -24 6 -27 11 -17 27 -75 42 -158 42 -186 -1 -212 7 -212 65 0
25 -55 184 -92 264 -14 30 -43 96 -64 145 -80 186 -248 456 -353 565 -15 16
-63 70 -106 120 -327 374 -869 696 -1419 840 -273 72 -363 84 -596 84 -203 0
-221 -2 -325 -28 -60 -16 -117 -35 -126 -42 -8 -8 -24 -14 -34 -14 -20 0 -144
-64 -160 -83 -5 -7 -30 -28 -55 -48 -74 -60 -242 -236 -284 -297 -56 -82 -113
-205 -135 -292 -11 -41 -35 -101 -54 -132 -18 -31 -47 -94 -62 -140 -24 -69
-29 -102 -31 -198 -3 -163 14 -234 82 -352 29 -49 207 -198 289 -241 73 -38
142 -69 160 -73 11 -2 29 -8 40 -13 41 -19 125 -42 134 -37 5 4 29 0 53 -8 24
-7 58 -16 76 -20 19 -3 48 -12 65 -20 18 -7 93 -26 167 -40 74 -15 169 -37
210 -48 41 -12 102 -28 135 -36 33 -9 62 -19 65 -22 3 -4 16 -10 30 -14 71
-20 258 -104 305 -138 23 -15 50 -30 60 -32 55 -11 142 -40 156 -53 9 -7 29
-16 44 -19 15 -3 44 -13 64 -23 41 -21 96 -40 137 -47 15 -3 37 -10 48 -17 22
-12 123 -42 191 -56 22 -5 55 -14 74 -20 44 -14 143 -24 204 -22 27 1 55 -3
63 -10 12 -10 169 -23 229 -19 59 3 316 7 313 5 -5 -6 -122 -16 -178 -16 -25
0 -76 -4 -115 -9 -38 -5 -100 -11 -138 -14 -37 -3 -113 -12 -170 -20 -56 -8
-169 -24 -252 -36 -357 -49 -616 -103 -1015 -210 -469 -126 -839 -324 -1085
-581 -186 -195 -269 -327 -456 -724 -88 -188 -171 -443 -334 -1027 -112 -403
-197 -643 -310 -873 -79 -161 -188 -338 -216 -352 -13 -7 -31 -20 -39 -31 -8
-10 -35 -29 -60 -42 -25 -14 -48 -29 -52 -35 -5 -7 -8 -6 -8 1 0 5 4 14 9 20
15 14 34 148 27 186 -3 18 -20 50 -37 71 -58 71 -125 88 -224 57 -88 -27 -115
-44 -162 -99 -36 -41 -61 -93 -89 -180 -3 -9 -18 -2 -48 25 -99 87 -117 96
-231 120 -83 18 -187 17 -234 -2 -18 -8 -37 -12 -41 -9 -5 3 -42 -10 -83 -30
-56 -25 -81 -44 -97 -70 -26 -42 -40 -130 -27 -169 9 -26 83 -107 159 -171 19
-17 43 -47 52 -67 10 -21 26 -40 37 -43 10 -4 19 -11 19 -16 0 -5 7 -9 15 -9
9 0 32 -10 53 -23 20 -12 62 -31 92 -41 30 -11 58 -24 62 -30 4 -6 17 -11 30
-12 31 -2 57 -13 93 -39 57 -41 60 -36 8 13 -33 32 -84 65 -140 92 -93 44
-152 80 -193 119 l-25 23 50 -7 c28 -4 66 -9 85 -11 78 -10 174 -52 221 -97
16 -15 41 -32 54 -37 14 -5 25 -16 25 -25 0 -8 4 -15 8 -15 4 0 16 -13 25 -30
l18 -30 -26 0 c-36 0 -27 -21 15 -35 19 -6 35 -16 38 -23 2 -6 9 -9 16 -6 7 3
18 -2 25 -10 13 -15 5 -40 -39 -126 -10 -19 -24 -55 -31 -80 -7 -25 -16 -50
-20 -55 -4 -6 -19 -49 -33 -96 -27 -96 -42 -213 -32 -255 l7 -28 20 30 c10 16
19 37 19 47 0 9 4 17 8 17 10 0 52 94 63 140 8 38 60 181 89 245 10 22 23 52
29 68 6 15 17 27 25 27 20 0 225 -149 302 -219 17 -16 40 -32 51 -35 19 -6 43
-44 43 -68 0 -6 6 -19 13 -27 14 -18 36 -76 43 -119 3 -15 15 -37 26 -49 14
-15 17 -23 9 -23 -9 0 -10 -4 -4 -12 6 -7 16 -30 22 -50 15 -46 38 -65 26 -22
-4 16 -9 39 -10 51 -5 40 -35 152 -51 190 -18 42 -25 73 -18 73 3 0 17 -9 31
-19 44 -35 219 -80 289 -75 33 3 50 0 58 -11 9 -12 27 -9 121 22 l110 36 -100
33 c-55 19 -112 40 -127 49 -14 8 -42 15 -61 15 -19 0 -62 9 -96 20 -34 10
-67 17 -74 15 -6 -3 -25 6 -41 20 -17 14 -41 28 -55 31 -14 3 -34 9 -43 15
-10 5 -25 9 -34 9 -28 0 -64 50 -64 92 0 25 -24 98 -43 132 -6 12 -11 24 -12
28 0 3 -3 10 -8 14 -15 16 -6 32 26 44 17 7 64 27 102 45 39 17 85 38 102 46
18 8 33 18 33 24 0 6 9 16 20 23 12 7 18 17 15 22 -3 6 4 10 17 10 13 0 31 8
39 18 9 9 26 24 39 32 12 8 32 23 44 33 11 9 30 24 41 32 19 14 18 14 -15 8
-29 -5 -129 -49 -225 -100 -36 -19 -99 -45 -170 -70 -38 -13 -77 -27 -85 -30
-30 -12 -56 -10 -85 5 -16 9 -46 15 -65 14 -36 -2 -100 -30 -100 -44 0 -5 -6
-8 -12 -9 -7 0 -27 -19 -43 -42 -31 -43 -36 -44 -112 -38 -6 1 -28 27 -47 58
-48 77 -61 91 -131 138 -94 64 -202 104 -347 129 -25 5 -37 12 -37 24 0 9 -3
30 -7 45 -10 42 14 106 47 123 35 18 92 12 150 -15 53 -25 160 -121 186 -167
81 -142 135 -224 145 -218 6 4 8 3 5 -3 -4 -6 0 -14 9 -17 8 -3 20 -19 25 -35
8 -22 15 -28 30 -24 10 3 19 13 19 22 0 10 8 26 19 37 16 18 18 36 16 159 -2
144 4 177 43 220 22 25 57 45 77 45 8 0 15 5 15 10 0 6 13 9 30 8 32 -2 33 -4
34 -94 0 -31 -6 -47 -25 -65 -14 -13 -17 -18 -7 -10 15 12 18 12 18 0 0 -8 -9
-25 -20 -39 -11 -14 -20 -31 -20 -38 0 -7 -14 -27 -31 -45 -17 -17 -35 -40
-40 -49 -14 -26 6 -23 33 4 13 13 27 22 32 20 5 -2 23 10 40 26 17 16 58 48
91 70 77 53 191 162 289 279 43 51 99 106 125 123 25 16 76 49 112 72 36 24
72 48 81 53 8 6 35 23 59 39 138 91 210 137 262 167 86 51 180 109 281 174 33
21 77 48 96 60 80 47 108 64 243 149 78 48 163 99 189 112 26 13 89 51 139 84
50 33 113 72 140 86 27 15 49 31 49 36 0 4 5 8 11 8 6 0 43 21 82 47 83 55 78
52 194 122 189 115 300 186 338 217 22 17 99 70 170 118 72 48 155 105 185
127 30 21 62 44 70 49 42 28 112 78 141 101 19 14 81 59 139 99 58 41 141 103
185 140 44 36 105 84 135 107 30 22 64 49 75 60 11 10 30 26 43 35 12 8 44 35
70 60 26 24 72 64 102 88 30 24 69 56 85 71 24 21 44 28 101 33 39 3 86 9 105
12 32 6 29 2 -71 -102 -91 -93 -471 -432 -549 -488 -14 -11 -42 -34 -61 -51
-19 -18 -57 -47 -85 -65 -27 -19 -94 -69 -148 -112 -54 -43 -100 -78 -103 -78
-2 0 -33 -21 -67 -47 -103 -78 -126 -94 -272 -189 -22 -14 -65 -43 -95 -63
-30 -20 -66 -42 -80 -48 -14 -6 -97 -59 -185 -119 -88 -60 -178 -118 -200
-129 -68 -34 -147 -86 -205 -135 -30 -26 -74 -57 -97 -68 -23 -12 -44 -26 -47
-31 -4 -5 -31 -22 -61 -37 -30 -16 -55 -31 -55 -35 0 -4 -12 -14 -28 -22 -61
-31 -92 -53 -92 -62 0 -13 -140 -89 -148 -80 -3 3 -16 -5 -29 -17 -13 -12 -23
-18 -23 -14 0 4 -13 -2 -28 -13 -24 -17 -125 -46 -222 -65 -14 -3 5 -3 43 -2
79 4 78 -8 -7 -50 -28 -14 -67 -38 -86 -53 -19 -16 -45 -31 -56 -35 -12 -4
-29 -15 -39 -26 -10 -11 -22 -20 -27 -20 -5 0 -24 -11 -41 -24 -41 -30 -145
-86 -160 -86 -7 0 -35 -20 -63 -44 -28 -25 -63 -48 -77 -52 -15 -3 -27 -10
-27 -15 0 -5 -17 -17 -37 -27 -21 -9 -40 -19 -43 -22 -16 -17 -96 -70 -105
-70 -6 0 -26 -11 -45 -25 -19 -14 -42 -25 -51 -25 -10 0 -24 -8 -31 -18 -7
-11 -29 -24 -48 -31 -19 -6 -53 -27 -74 -46 -22 -19 -44 -31 -49 -28 -6 3 -7
1 -3 -6 4 -6 0 -14 -11 -18 -10 -4 -21 -11 -24 -15 -3 -5 -17 -11 -30 -12 -14
-2 -37 -15 -51 -29 -15 -15 -33 -27 -40 -27 -7 0 -30 -11 -51 -25 -20 -14 -63
-40 -94 -57 -32 -17 -65 -36 -73 -43 -8 -7 -34 -22 -57 -34 -23 -11 -45 -26
-49 -33 -6 -10 -4 -10 7 -2 8 6 30 17 49 24 19 7 42 19 50 26 19 16 75 47 175
99 98 51 245 134 265 150 8 7 26 16 40 20 14 4 34 15 45 24 21 17 32 23 118
70 29 15 99 57 157 91 133 80 291 170 298 170 3 0 28 15 56 34 28 18 80 50
116 70 36 20 81 47 101 59 19 12 57 35 85 51 62 37 236 138 248 144 5 3 23 6
40 7 17 1 47 5 66 8 19 4 60 9 90 12 30 3 120 12 200 21 80 9 160 18 178 20
18 2 36 5 41 8 4 3 57 10 117 16 60 6 132 15 159 20 28 5 109 14 180 20 72 7
186 18 255 27 69 8 148 17 175 19 28 3 127 12 220 21 94 9 195 17 225 18 30 2
109 8 175 14 66 6 172 14 235 16 63 3 165 10 225 15 93 9 486 37 620 45 22 1
173 7 335 14 162 6 320 13 350 16 172 16 1126 22 1710 10 470 -9 941 -31 1375
-64 328 -26 328 -26 357 -56 13 -14 31 -25 41 -25 9 0 17 -4 17 -9 0 -11 115
-85 147 -95 12 -4 38 -20 58 -36 21 -16 60 -41 89 -56 54 -27 64 -32 241 -134
22 -13 54 -35 70 -50 17 -15 57 -37 90 -50 33 -12 67 -28 76 -36 18 -16 52
-35 162 -91 37 -18 67 -37 67 -41 0 -4 20 -15 44 -25 24 -10 47 -25 50 -33 3
-8 12 -14 21 -14 8 0 33 -12 54 -26 32 -20 39 -30 35 -50 -2 -13 0 -24 6 -24
5 0 10 -7 10 -15 0 -8 46 -51 103 -96 94 -76 166 -145 167 -160 0 -4 -15 -3
-32 0 -49 10 -109 -2 -161 -32 -59 -35 -124 -132 -170 -252 -60 -156 -86 -201
-161 -278 -92 -96 -218 -157 -322 -157 -36 0 -42 -3 -46 -25 -9 -47 2 -74 36
-84 17 -5 74 -28 126 -49 157 -66 244 -66 308 1 17 17 44 46 62 62 17 17 40
50 52 75 11 25 33 70 49 100 18 36 33 91 44 160 19 123 34 180 50 187 7 2 10
14 8 27 -3 13 2 30 11 39 9 8 16 18 16 22 0 10 43 65 79 102 40 40 90 53 109
30 11 -12 9 -26 -6 -74 -11 -32 -23 -79 -27 -103 -4 -25 -13 -56 -20 -70 -7
-14 -18 -52 -25 -85 -7 -33 -16 -64 -20 -70 -4 -5 -19 -50 -34 -100 -51 -177
-73 -324 -43 -293 7 7 21 29 31 48 41 79 56 104 56 95 1 -18 81 218 97 285 8
36 20 74 25 84 6 11 16 47 23 81 18 86 88 229 126 256 27 19 35 20 75 10 52
-13 122 -78 156 -144 11 -23 27 -47 34 -55 8 -7 14 -19 15 -25 2 -35 12 -61
48 -127 25 -47 31 -62 31 -82 0 -12 6 -29 14 -37 15 -18 46 -118 46 -150 0
-12 7 -24 16 -28 11 -4 14 -13 10 -29 -4 -14 -2 -24 4 -24 6 0 9 -4 6 -8 -2
-4 1 -33 9 -63 l14 -54 -4 75 c-9 171 -49 316 -175 634 -18 45 -19 75 -2 51 4
-6 20 -16 35 -23 55 -24 173 -139 222 -217 68 -108 192 -209 285 -231 112 -27
293 -9 385 39 28 14 84 60 125 101 89 91 98 86 -130 71 -137 -9 -314 16 -346
48 -4 4 -15 7 -24 7 -23 0 -153 138 -175 184 -23 48 -105 121 -179 158 -51 26
-57 32 -42 40 10 6 57 12 105 15 88 4 196 26 241 49 45 22 97 88 124 156 14
36 26 75 26 86 0 11 13 48 30 83 24 52 29 72 26 124 -5 84 -32 135 -89 163
-24 12 -61 22 -81 22 -67 0 -235 -85 -450 -229 -61 -41 -201 -181 -234 -236
-27 -43 -32 -47 -38 -30 -36 101 -78 171 -141 233 -38 37 -87 75 -109 85 -35
16 -45 29 -76 95 -82 173 -111 243 -168 412 -10 30 -37 105 -59 165 -72 193
-215 629 -356 1080 -25 83 -51 159 -56 170 -5 11 -22 57 -38 102 -35 95 -149
336 -193 408 -113 183 -170 256 -308 395 -115 116 -169 162 -260 222 -295 193
-596 295 -1025 348 -49 6 -142 18 -204 26 -63 9 -196 20 -295 24 -100 5 -251
14 -336 20 -85 5 -222 15 -305 20 -82 6 -215 12 -295 15 -80 3 -235 10 -345
15 -110 6 -323 13 -473 17 -310 7 -278 -6 -243 99 11 33 14 62 10 84 -9 41 4
60 39 60 19 0 23 3 15 11 -8 8 -17 8 -31 0 -17 -9 -23 -3 -55 62 -20 41 -54
90 -77 111 -32 29 -39 42 -34 59 11 36 32 73 49 87 18 15 47 56 150 216 33 51
96 143 141 206 44 62 89 127 100 145 66 110 238 349 293 406 80 83 130 108
233 114 97 7 151 -16 202 -85 80 -109 136 -142 240 -142 129 0 232 57 330 184
35 44 69 92 76 106 23 43 115 153 172 205 94 87 254 185 388 238 25 10 54 23
65 27 149 66 653 133 935 124 209 -7 213 -7 313 -37 48 -15 93 -27 100 -27 6
0 35 -11 62 -25 133 -65 222 -133 276 -212 101 -146 119 -177 138 -227 11 -30
25 -94 31 -142 12 -99 14 -95 -74 -186 -71 -75 -239 -158 -366 -183 -19 -4
-39 -11 -45 -15 -5 -4 -50 -15 -100 -25 -49 -9 -99 -21 -110 -25 -41 -17 -82
-21 -244 -26 -205 -5 -247 -9 -380 -29 -150 -23 -249 -44 -301 -65 -25 -10
-57 -21 -73 -24 -42 -10 -282 -132 -317 -162 -9 -7 -42 -25 -74 -40 -34 -16
-91 -57 -140 -101 -44 -41 -94 -81 -111 -88 -16 -8 -41 -23 -55 -33 -14 -11
-56 -39 -95 -62 -38 -24 -81 -50 -95 -59 -72 -45 -282 -116 -369 -126 -31 -4
-85 -13 -120 -22 -35 -8 -75 -13 -88 -10 -13 2 -26 1 -28 -3 -9 -14 -96 -22
-110 -10 -9 8 -26 8 -61 0 -27 -6 -87 -10 -135 -9 -48 1 -91 -1 -96 -4 -5 -4
-50 -9 -99 -12 -76 -5 -154 -16 -274 -39 -33 -6 67 0 200 13 58 5 212 12 343
15 331 8 474 26 645 82 156 52 264 111 562 311 91 61 184 120 207 132 23 11
45 25 48 31 4 6 39 27 78 47 160 80 371 145 515 157 40 4 78 9 85 11 6 2 41 7
77 10 36 3 112 10 170 15 58 6 161 15 230 20 69 5 150 14 180 19 161 27 358
88 448 138 35 20 65 33 67 31 5 -5 -43 -63 -117 -143 -55 -60 -199 -143 -311
-179 -41 -13 -83 -29 -93 -35 -23 -12 -145 -41 -174 -41 -11 0 -20 -4 -20 -9
0 -13 -69 -26 -220 -40 -52 -6 -120 -13 -150 -16 -72 -8 -200 -34 -221 -45 -9
-5 -52 -19 -95 -30 -88 -24 -172 -59 -211 -90 -14 -11 -33 -20 -42 -20 -9 0
-34 -16 -56 -35 -22 -19 -43 -35 -47 -35 -5 0 -25 -15 -45 -33 -21 -19 -60
-49 -88 -67 -27 -19 -59 -42 -69 -52 -11 -10 -40 -28 -65 -40 -25 -12 -71 -42
-101 -67 -30 -24 -75 -53 -100 -63 -25 -10 -58 -25 -75 -33 -79 -38 -359 -87
-485 -85 -30 1 -84 1 -120 2 -36 0 -108 1 -162 2 -53 0 -94 -3 -91 -7 6 -10
-100 3 -107 14 -3 4 -37 7 -75 6 -39 -1 -110 -1 -160 0 -49 1 -135 1 -190 0
-212 -5 -212 -11 0 -18 121 -4 240 -10 265 -12 141 -14 583 -28 690 -22 204
11 365 46 510 109 127 56 280 148 354 214 60 53 283 194 364 230 71 31 258 85
357 102 185 33 292 50 347 55 247 25 524 122 688 242 130 94 238 227 276 340
8 24 36 71 62 105 165 220 208 458 119 660 -23 52 -98 154 -142 193 -161 144
-315 227 -510 275 -44 11 -101 26 -127 34 -25 8 -48 12 -51 10 -3 -3 -29 2
-58 10 -30 8 -90 18 -134 21 -44 4 -98 8 -120 11 -111 12 -517 12 -615 0z
m735 -101 c72 -8 145 -19 164 -25 19 -5 37 -7 42 -5 4 3 56 -11 116 -30 59
-19 114 -35 122 -35 27 0 216 -100 272 -144 72 -57 174 -184 213 -266 27 -57
31 -78 34 -172 4 -90 1 -115 -17 -162 -22 -59 -51 -110 -58 -102 -2 2 -10 33
-18 68 -28 135 -106 262 -235 381 -132 122 -254 181 -495 238 -92 22 -119 24
-345 23 -360 -3 -553 -28 -834 -110 -324 -95 -562 -259 -726 -504 -119 -177
-211 -254 -321 -267 -62 -7 -97 12 -162 95 -30 37 -61 73 -71 81 -14 12 -8 16
56 38 87 29 182 90 263 170 56 55 283 313 315 359 23 32 138 126 205 167 117
71 348 148 570 189 208 38 636 45 910 13z m-6340 -110 c191 -27 329 -62 595
-153 97 -33 377 -167 493 -236 43 -25 80 -46 83 -46 10 0 192 -129 220 -155
17 -17 77 -70 133 -120 227 -199 472 -509 656 -829 51 -90 225 -430 225 -440
0 -2 -16 -10 -36 -16 -42 -14 -110 -58 -138 -89 -18 -20 -20 -20 -39 -4 -11
10 -33 45 -48 78 -16 33 -33 67 -37 75 -16 28 -36 65 -59 109 -12 24 -27 48
-31 55 -5 6 -26 48 -46 94 -99 226 -239 424 -443 622 -214 209 -540 433 -741
510 -31 12 -65 26 -75 31 -10 5 -50 21 -89 35 -185 67 -349 106 -533 126 -150
16 -551 15 -635 -1 -36 -7 -81 -15 -100 -18 -49 -7 -244 -64 -250 -74 -3 -4
-19 -11 -35 -15 -56 -13 -201 -92 -252 -138 -39 -34 -37 -10 6 67 49 89 116
175 219 280 94 95 185 161 274 197 60 25 100 35 258 70 59 12 287 5 425 -15z
m120 -469 c121 -19 280 -52 335 -70 240 -77 546 -219 656 -304 16 -12 66 -49
111 -82 107 -79 250 -207 341 -306 115 -124 212 -257 353 -481 129 -206 259
-388 282 -396 8 -2 2 -24 -17 -67 -26 -58 -28 -70 -24 -154 5 -80 9 -98 37
-145 18 -29 31 -55 29 -56 -2 -1 -50 -5 -108 -8 -66 -3 -97 -2 -82 3 30 13 28
15 -16 17 -20 1 -31 -1 -24 -4 25 -10 10 -23 -28 -23 -22 0 -40 4 -40 9 0 6
-56 9 -137 7 -76 -2 -167 0 -203 5 -36 5 -101 10 -145 13 -79 4 -281 32 -295
41 -3 2 -53 13 -111 25 -57 11 -129 29 -159 39 -30 11 -86 29 -125 41 -82 25
-168 63 -357 154 -75 36 -140 66 -146 66 -5 0 -52 20 -103 44 -125 59 -393
149 -479 162 -19 3 -42 7 -50 10 -8 3 -42 10 -75 15 -164 25 -232 41 -375 88
-296 98 -454 219 -552 421 -30 62 -32 245 -4 338 l19 62 28 -71 c34 -87 74
-131 185 -204 81 -53 283 -155 307 -155 6 0 45 -14 86 -30 40 -17 84 -30 97
-30 14 0 41 -7 62 -16 20 -8 57 -22 82 -31 25 -8 52 -21 60 -28 8 -7 29 -15
45 -18 17 -3 55 -13 85 -22 82 -25 151 -42 191 -49 19 -3 75 -29 123 -56 68
-40 116 -79 215 -178 175 -174 207 -199 271 -217 30 -9 87 -25 125 -38 39 -12
75 -20 82 -19 7 2 36 -4 65 -12 29 -8 87 -17 128 -21 68 -6 163 -15 305 -29
28 -3 89 -8 138 -10 48 -3 92 -8 98 -12 6 -4 14 -2 18 4 8 13 82 -3 93 -21 3
-5 30 -12 59 -14 29 -2 58 -7 63 -12 6 -5 28 -14 49 -20 20 -7 37 -16 37 -21
0 -4 10 -8 23 -8 12 0 57 -16 99 -36 99 -47 163 -66 213 -64 33 1 34 2 10 5
-16 2 -39 8 -50 12 -11 5 -40 14 -65 21 -25 7 -99 38 -165 70 -137 66 -224 92
-380 115 -60 9 -117 18 -125 20 -8 2 -69 7 -135 10 -66 3 -136 8 -155 11 -19
3 -55 7 -80 9 -78 6 -154 16 -161 21 -4 2 -42 11 -84 19 -82 15 -244 87 -303
134 -41 32 -105 93 -194 189 -38 39 -87 84 -111 101 -56 38 -211 107 -262 116
-37 6 -188 58 -263 91 -18 8 -39 14 -46 14 -8 0 -41 14 -74 30 -34 17 -65 30
-71 30 -6 0 -25 6 -43 14 -18 8 -69 29 -113 46 -72 29 -218 101 -270 133 -33
21 -155 140 -155 152 0 6 -9 30 -20 53 -11 23 -23 74 -26 115 l-7 74 39 43
c48 53 157 141 204 165 19 9 42 23 50 30 8 7 42 22 75 34 33 12 69 26 80 31
18 9 106 32 230 61 126 29 558 33 730 5z m2447 -1605 c19 -6 44 -21 53 -31 18
-20 18 -20 -12 -5 -42 21 -67 10 -60 -25 4 -19 -2 -38 -19 -63 -13 -20 -24
-42 -24 -49 0 -8 -6 -20 -12 -27 -9 -8 -13 -41 -12 -96 l0 -84 -23 22 c-12 12
-23 28 -23 35 0 6 -4 12 -9 12 -10 0 -42 73 -47 105 -1 11 -3 20 -4 20 -1 0
-3 15 -6 34 -7 55 -42 79 -72 49 -6 -6 -14 -9 -18 -6 -10 11 59 76 106 101 50
26 119 29 182 8z m50 -154 c15 -7 43 -27 62 -45 32 -29 35 -36 30 -70 -4 -20
-7 -45 -8 -55 -1 -19 -95 -111 -104 -102 -3 3 -11 0 -17 -5 -17 -14 -55 66
-57 120 -1 23 -5 43 -10 46 -9 6 -3 50 14 104 16 51 18 53 41 35 12 -8 34 -21
49 -28z m237 -34 c2 -21 4 -48 5 -61 1 -12 9 -25 19 -28 12 -4 16 -12 12 -24
-3 -10 -1 -21 5 -25 6 -3 7 -11 4 -17 -4 -5 -9 -27 -11 -47 -3 -20 -8 -39 -12
-43 -8 -9 -191 -24 -191 -15 0 3 16 29 35 59 20 29 40 70 46 91 5 20 13 37 17
37 4 0 15 -14 24 -31 10 -17 22 -27 28 -24 11 7 7 44 -8 71 -10 17 4 94 17 94
4 0 9 -17 10 -37z m-563 -78 c44 -85 63 -109 102 -124 17 -7 32 -17 32 -22 0
-5 12 -15 28 -23 39 -21 16 -26 -102 -23 l-98 2 -5 60 c-3 49 -1 62 14 74 12
9 13 12 3 9 -12 -5 -15 5 -14 51 2 99 5 111 15 66 5 -22 16 -53 25 -70z m204
-270 c0 -13 -182 -223 -307 -354 -39 -42 -107 -119 -151 -171 -44 -52 -161
-175 -259 -273 l-179 -178 -142 -9 c-79 -5 -195 -14 -260 -19 -128 -12 -385
-32 -472 -37 -30 -2 -109 -10 -175 -18 -66 -8 -169 -20 -230 -27 -203 -21
-487 -85 -660 -147 -345 -123 -492 -201 -690 -363 -87 -71 -239 -224 -301
-304 -264 -338 -428 -771 -422 -1115 1 -92 1 -93 7 -30 4 36 11 74 17 85 7 11
15 46 18 77 4 32 12 60 17 63 5 4 9 16 9 28 1 101 166 463 292 641 257 362
484 560 826 723 191 91 527 191 752 224 117 16 292 37 455 54 88 8 203 20 255
25 52 6 131 13 175 15 44 3 94 8 110 10 17 2 91 7 165 11 l135 6 -32 -33 -32
-33 -228 -12 c-255 -14 -451 -30 -532 -44 -29 -6 -57 -8 -61 -5 -4 2 -50 -2
-103 -10 -53 -8 -159 -19 -234 -26 -129 -10 -403 -61 -504 -93 -182 -59 -405
-158 -519 -231 -487 -311 -780 -779 -829 -1320 -23 -247 -44 -387 -64 -412 -5
-7 -16 -13 -24 -13 -8 0 -38 -21 -67 -46 -28 -26 -63 -51 -78 -56 -16 -6 -28
-14 -28 -19 0 -5 -14 -16 -32 -25 -17 -9 -54 -34 -81 -55 -27 -22 -54 -39 -61
-39 -7 0 -21 -10 -32 -21 -10 -12 -32 -28 -49 -35 -16 -8 -42 -24 -57 -36 -15
-12 -30 -20 -32 -17 -3 2 18 40 46 84 52 83 199 379 235 475 59 153 84 228
126 370 25 85 49 171 52 190 16 82 191 645 246 793 114 305 268 589 411 758
30 36 57 70 59 76 9 25 195 184 287 246 172 114 464 250 707 328 262 84 949
224 1223 249 52 5 101 12 111 15 58 18 594 63 896 74 279 11 295 11 295 6z
m1165 -16 c50 -5 246 -11 435 -14 353 -4 491 -9 570 -19 25 -3 117 -8 205 -11
375 -13 434 -17 553 -37 34 -5 65 -14 68 -19 3 -5 32 -9 64 -9 32 0 62 -4 65
-10 3 -5 18 -10 32 -10 15 0 61 -9 102 -19 42 -11 126 -32 186 -47 61 -15 133
-37 160 -49 136 -61 337 -161 343 -171 4 -7 39 -33 77 -59 39 -26 88 -65 110
-86 22 -20 56 -52 75 -71 80 -75 190 -215 213 -270 8 -20 25 -46 37 -58 40
-40 149 -211 165 -260 9 -28 22 -56 29 -63 6 -6 38 -82 70 -167 32 -85 62
-163 67 -172 5 -10 9 -24 9 -33 0 -8 15 -61 34 -117 49 -147 49 -147 27 -108
-11 19 -25 51 -31 70 -13 47 -96 185 -164 274 -152 197 -434 381 -731 476
-121 38 -340 88 -445 100 -164 19 -376 39 -470 44 -72 4 -1446 19 -1507 16 -6
0 -18 6 -25 13 -7 6 -31 25 -53 41 -22 16 -53 43 -70 61 -43 47 -697 593 -883
738 l-74 57 214 3 c251 4 419 0 543 -14z m-884 -61 c35 -40 67 -75 70 -78 4
-3 30 -36 58 -74 65 -86 301 -347 344 -381 18 -14 97 -87 175 -163 l144 -139
-339 -7 c-569 -13 -814 -20 -1040 -32 -62 -3 -113 -4 -113 0 0 3 31 43 68 90
92 115 194 259 276 389 78 125 182 328 190 372 l6 30 -15 -32 c-8 -18 -19 -33
-23 -33 -5 0 -37 -45 -73 -101 -35 -55 -79 -117 -98 -137 -18 -20 -52 -62 -75
-92 -22 -30 -55 -71 -73 -90 -17 -19 -70 -84 -117 -145 -114 -146 -119 -152
-174 -212 l-47 -51 -85 -4 -85 -4 131 131 c226 228 450 504 594 732 l65 102
86 1 87 0 63 -72z m34 62 c-3 -5 -2 -10 4 -10 5 0 13 5 16 10 14 23 39 4 151
-112 200 -208 350 -353 446 -435 51 -42 129 -109 173 -148 44 -39 115 -100
159 -135 l78 -65 -33 -8 c-17 -5 -42 -6 -53 -3 -12 3 -66 50 -121 103 -180
176 -697 667 -759 722 -34 29 -70 62 -81 72 -19 19 -19 19 3 19 13 0 20 -4 17
-10z m2415 -964 c85 -5 409 -23 610 -33 58 -3 110 -9 115 -13 6 -5 39 -11 75
-14 126 -12 375 -75 418 -106 15 -11 41 -22 58 -24 64 -11 188 -58 216 -81 16
-14 38 -25 48 -25 10 0 31 -11 47 -24 15 -13 63 -48 105 -77 42 -30 89 -70
105 -90 15 -19 46 -51 69 -71 22 -21 49 -54 59 -75 11 -21 30 -49 43 -63 25
-28 142 -263 142 -286 0 -8 4 -13 8 -10 13 8 45 -115 34 -126 -6 -6 -2 -26 11
-51 19 -40 43 -209 32 -227 -3 -5 0 -21 6 -37 12 -32 23 -347 11 -340 -4 3 -5
-23 -3 -56 3 -56 5 -59 15 -37 7 17 10 104 9 265 -2 244 -3 264 -22 370 -5 33
-13 78 -17 100 -11 64 4 35 27 -51 11 -43 38 -124 60 -179 22 -55 41 -109 42
-121 1 -11 10 -28 20 -38 9 -10 17 -24 17 -32 0 -8 7 -28 15 -43 8 -16 16 -48
19 -72 2 -24 20 -75 38 -114 19 -38 41 -92 48 -120 8 -27 20 -61 27 -75 7 -14
13 -35 13 -47 0 -13 4 -23 9 -23 5 0 23 -35 41 -77 17 -43 35 -87 39 -98 46
-109 65 -152 72 -160 4 -6 13 -23 18 -38 l11 -27 -29 14 c-37 20 -162 30 -247
21 -67 -7 -69 -8 -124 -66 -54 -56 -58 -59 -81 -47 -32 17 -270 178 -329 223
-25 19 -58 42 -75 51 -16 9 -61 40 -100 68 -38 29 -98 70 -132 91 -34 22 -62
42 -63 45 0 3 125 -5 278 -17 293 -23 436 -28 414 -14 -13 8 -13 19 4 121 l6
35 -16 -29 c-9 -15 -16 -50 -16 -77 0 -48 -1 -49 -29 -49 -16 0 -42 5 -58 12
-15 6 -50 14 -78 19 -27 4 -81 13 -120 19 -38 7 -83 13 -100 15 -16 1 -61 9
-100 18 -38 9 -128 25 -198 36 -71 12 -137 26 -148 32 -36 19 -104 67 -155
111 -111 93 -395 303 -467 345 -11 6 -22 15 -26 20 -3 5 -28 24 -56 43 -27 18
-75 54 -105 80 -57 48 -149 117 -280 210 -63 45 -252 184 -295 218 -50 39
-131 106 -135 112 -3 4 -25 20 -50 36 -41 26 -96 69 -235 184 -24 19 -75 60
-115 90 -95 72 -199 155 -230 184 -14 12 -41 33 -60 46 -47 32 -110 84 -110
91 0 7 554 3 610 -5 90 -13 393 -32 685 -43 134 -4 121 -4 280 -14 152 -11
193 -16 249 -30 23 -6 92 -15 154 -19 63 -5 132 -16 154 -24 21 -9 43 -14 48
-11 5 3 26 -1 47 -9 21 -8 79 -29 128 -47 50 -18 108 -44 130 -58 22 -14 52
-31 67 -38 14 -6 54 -36 87 -67 34 -31 65 -56 71 -56 5 0 10 -5 10 -11 0 -6
30 -47 66 -92 37 -45 72 -94 78 -109 6 -16 13 -28 17 -28 14 0 50 -75 51 -104
0 -17 12 -53 26 -81 14 -27 27 -66 29 -85 2 -19 9 -48 15 -63 6 -15 8 -30 5
-33 -3 -3 3 -22 13 -42 11 -21 22 -53 25 -72 8 -55 32 -169 49 -230 20 -78 21
-18 0 69 -29 124 -43 186 -54 246 -98 500 -313 767 -733 914 -145 51 -430 105
-607 117 -41 2 -113 9 -160 14 -89 10 -449 36 -630 45 -58 3 -195 11 -305 17
-110 6 -313 14 -450 17 l-251 6 -44 35 -44 35 58 7 c33 4 60 9 62 10 5 5 928
0 1014 -6z m-1537 -40 l37 -33 -52 -6 c-29 -4 -160 -4 -292 -1 -131 3 -327 1
-435 -5 -108 -6 -290 -13 -406 -16 -115 -3 -259 -10 -320 -15 -170 -15 -285
-19 -285 -11 0 4 10 17 23 28 28 27 59 29 582 49 225 8 419 17 431 20 25 6
379 20 559 22 l120 1 38 -33z m287 -6 l35 -29 -61 -1 c-54 0 -63 3 -89 30
l-29 30 55 0 c46 0 60 -5 89 -30z m-2175 -70 c-28 -28 -37 -30 -125 -36 l-95
-7 29 31 c31 33 49 38 156 40 l65 2 -30 -30z m1828 -45 l198 -3 57 -48 c31
-27 95 -83 142 -126 47 -42 104 -92 127 -110 62 -50 277 -227 368 -304 44 -37
105 -83 135 -102 30 -19 66 -45 80 -58 39 -36 160 -124 171 -124 5 0 9 -4 9
-9 0 -9 37 -39 161 -131 34 -25 89 -68 122 -96 34 -27 127 -93 207 -147 80
-53 170 -115 200 -139 78 -62 145 -105 221 -143 36 -19 80 -45 96 -59 17 -14
35 -26 40 -26 6 0 23 -11 39 -25 16 -14 48 -35 72 -46 24 -12 41 -23 39 -26
-3 -2 -94 3 -203 11 -519 40 -992 57 -1644 58 -725 2 -1217 -8 -1600 -32 -85
-6 -229 -12 -320 -15 -91 -3 -185 -9 -210 -15 -62 -14 -167 -27 -285 -34 -156
-10 -307 -26 -340 -36 -16 -4 -75 -9 -130 -9 -122 -1 -244 -8 -350 -21 -120
-14 -275 -31 -320 -35 -67 -6 -126 -14 -210 -26 -44 -6 -114 -12 -155 -13 -41
0 -79 -4 -85 -7 -18 -11 -119 -32 -165 -35 -25 -1 -82 -7 -127 -13 -138 -18
-242 -31 -378 -45 -71 -8 -151 -19 -177 -26 -26 -7 -54 -10 -62 -7 -8 3 -17
-1 -20 -9 -4 -11 -23 -14 -78 -14 -40 1 -95 -1 -123 -4 l-50 -6 62 32 c98 53
109 59 293 173 96 59 184 116 195 125 11 10 27 20 35 22 8 2 42 20 75 41 33
21 119 73 190 115 72 43 164 103 205 134 41 30 89 63 105 72 61 34 100 59 127
80 53 42 114 85 138 98 44 23 180 121 180 130 0 4 6 8 14 8 8 0 16 3 18 8 2 4
57 45 123 91 108 76 213 158 240 187 6 6 39 32 75 58 140 101 375 309 555 492
66 67 129 126 140 132 11 5 64 12 118 14 53 1 97 7 97 12 0 4 15 5 34 2 19 -4
93 -2 164 4 71 6 298 13 503 16 206 3 433 9 504 13 72 4 137 6 145 3 8 -2 104
-6 213 -7z m503 -7 c17 -13 68 -55 115 -94 46 -39 131 -107 189 -151 125 -94
194 -149 286 -224 38 -30 94 -73 124 -93 30 -21 62 -45 70 -54 20 -22 150
-116 173 -125 9 -3 17 -11 17 -16 0 -5 61 -55 136 -111 74 -57 147 -116 162
-132 24 -26 117 -94 267 -196 28 -19 70 -51 95 -72 80 -68 138 -109 202 -141
35 -17 79 -44 99 -60 20 -16 42 -29 47 -29 6 0 15 -6 19 -13 9 -14 78 -67 88
-67 3 0 27 -16 54 -36 27 -20 52 -36 56 -35 7 3 52 -25 75 -46 8 -7 26 -22 40
-33 l25 -19 -30 0 c-16 0 -59 4 -95 8 -59 8 -77 17 -190 92 -69 46 -134 91
-144 101 -11 10 -23 18 -28 18 -4 0 -38 23 -76 50 -38 28 -73 50 -79 50 -5 0
-18 9 -29 21 -10 12 -32 28 -47 36 -15 7 -99 67 -185 132 -86 65 -170 126
-187 137 -16 10 -83 58 -147 106 -64 48 -122 88 -128 88 -5 0 -10 4 -10 9 0 5
-22 23 -48 40 -27 17 -59 42 -72 56 -13 14 -28 25 -33 25 -5 0 -15 6 -21 14
-6 7 -51 44 -101 81 -49 38 -128 100 -174 139 -46 39 -116 96 -156 126 -66 51
-172 140 -255 214 -19 17 -54 46 -78 64 -24 18 -74 62 -110 97 l-67 65 61 0
c47 0 67 -5 90 -22z m-2852 -116 c-179 -158 -381 -323 -544 -442 -56 -41 -112
-83 -123 -92 -11 -10 -23 -18 -28 -18 -4 0 -31 -19 -61 -43 -29 -23 -64 -50
-78 -60 -14 -9 -54 -37 -90 -62 -36 -24 -76 -52 -90 -62 -14 -9 -81 -54 -150
-100 -69 -46 -179 -122 -245 -168 -66 -46 -147 -98 -180 -116 -33 -17 -74 -42
-92 -55 -17 -13 -34 -24 -38 -24 -3 0 -37 -26 -74 -57 -38 -32 -105 -80 -151
-108 -45 -27 -94 -59 -109 -71 -14 -11 -44 -31 -66 -44 -22 -14 -48 -34 -58
-47 -10 -12 -28 -25 -40 -29 -12 -4 -34 -15 -49 -25 -14 -11 -33 -19 -41 -19
-9 0 -22 -6 -29 -12 -7 -7 -36 -24 -63 -38 -27 -14 -68 -39 -90 -55 -22 -17
-65 -45 -95 -62 -31 -18 -66 -43 -79 -57 -14 -14 -31 -26 -39 -26 -8 0 -27
-10 -42 -22 -31 -25 -72 -54 -132 -93 -33 -21 -38 -22 -38 -7 0 9 9 31 19 49
11 17 25 56 31 85 16 82 40 229 44 273 9 92 93 343 159 470 177 344 427 606
755 793 163 93 272 133 587 218 68 18 229 41 415 60 85 8 225 24 310 35 239
31 477 55 580 57 l45 1 -31 -27z m5361 -1759 c16 -9 50 -30 75 -48 25 -18 61
-40 80 -50 19 -10 42 -24 50 -32 8 -8 51 -37 94 -66 43 -29 90 -60 104 -69 14
-9 35 -28 46 -41 12 -13 43 -32 69 -42 26 -9 61 -28 76 -41 16 -13 32 -24 36
-24 3 0 21 -11 38 -24 18 -13 52 -34 77 -46 54 -27 110 -83 110 -110 0 -26 -6
-25 -46 5 -18 14 -35 25 -39 25 -9 0 -219 125 -285 170 -30 20 -91 56 -135 80
-44 24 -93 53 -110 65 -16 13 -50 34 -75 47 -74 40 -140 81 -184 115 -22 18
-44 33 -48 33 -10 0 -128 72 -128 77 0 11 166 -10 195 -24z m2373 -394 c25
-24 32 -40 32 -68 l0 -38 -60 30 c-38 19 -79 31 -111 33 -28 1 -53 4 -55 7 -3
3 18 15 45 28 28 12 51 25 51 28 0 3 15 7 33 8 26 2 41 -4 65 -28z m-1228 -81
c22 1 108 -28 158 -52 43 -21 119 -93 115 -108 -2 -5 3 -7 9 -5 26 5 135 -249
115 -269 -3 -3 -25 31 -51 75 -25 43 -56 88 -69 98 -13 10 -29 28 -36 41 -6
12 -16 22 -22 22 -6 0 -31 16 -56 35 -30 23 -64 38 -104 46 -32 6 -59 16 -59
20 0 18 -77 9 -103 -11 -24 -19 -29 -20 -55 -6 -56 29 -57 40 -10 79 42 35 91
49 133 39 11 -3 27 -5 35 -4z m1149 -73 c17 -8 31 -25 34 -42 3 -15 9 -36 12
-45 5 -12 2 -18 -8 -18 -9 0 -29 -13 -45 -30 -17 -16 -35 -30 -41 -30 -5 0
-13 -9 -16 -21 -4 -11 -9 -18 -12 -15 -3 2 -17 -6 -31 -20 -15 -13 -34 -24
-44 -24 -9 0 -19 -8 -22 -18 -4 -10 -25 -29 -47 -42 -36 -20 -57 -23 -170 -25
-82 -2 -134 -7 -144 -15 -8 -6 -23 -9 -35 -5 -12 4 -20 2 -20 -5 0 -6 -4 -9
-10 -5 -5 3 -18 0 -29 -7 -37 -23 -33 0 7 38 21 22 49 56 61 76 21 35 96 105
171 159 115 82 317 132 389 94z m-1319 -85 c0 -14 -14 -12 -28 2 -19 19 -14
30 8 18 11 -6 20 -15 20 -20z m-10254 -25 c9 -8 24 -15 34 -15 13 0 23 -14 35
-50 15 -44 15 -53 1 -82 -8 -18 -17 -44 -21 -58 -12 -46 -27 -80 -37 -80 -5 0
-7 4 -4 9 11 17 -31 93 -61 111 -45 27 -156 15 -189 -21 -9 -10 -21 -19 -25
-19 -25 0 38 149 78 181 46 39 160 53 189 24z m10490 -46 c68 -36 101 -60 108
-75 4 -11 -149 77 -168 97 -18 17 3 10 60 -22z m-65 -9 c13 -10 19 -19 13 -20
-19 0 -64 26 -57 33 10 11 19 8 44 -13z m1179 -43 c0 -14 -56 -67 -71 -67 -5
0 -9 -7 -9 -15 0 -11 -11 -15 -40 -15 -22 0 -40 2 -40 4 0 2 19 16 43 32 23
16 44 31 47 35 10 11 55 39 62 39 5 0 8 -6 8 -13z m-1075 -17 c17 -19 17 -19
-8 -7 -14 6 -23 15 -21 19 7 11 9 10 29 -12z m-11158 -15 c41 -12 135 -74 160
-105 7 -8 26 -37 42 -65 24 -43 28 -57 22 -99 l-6 -50 -37 60 c-48 76 -137
161 -213 204 -51 28 -71 33 -135 35 -78 2 -100 -4 -162 -43 -37 -24 -58 -64
-58 -108 0 -34 -17 -30 -25 6 -15 67 67 151 163 166 23 3 45 11 48 16 8 12
142 0 201 -17z m11033 -11 c0 -2 -13 2 -30 11 -16 9 -30 18 -30 21 0 2 14 -2
30 -11 17 -9 30 -18 30 -21z m250 -45 c0 -4 -7 -6 -15 -3 -8 4 -15 10 -15 15
0 4 7 6 15 3 8 -4 15 -10 15 -15z m-10467 -50 c-54 -69 -259 -269 -275 -269
-9 0 2 17 54 85 80 104 185 205 213 205 3 0 15 9 27 20 37 34 31 23 -19 -41z
m10482 1 c11 0 45 -31 45 -40 0 -6 -62 21 -99 45 -12 7 -11 10 5 16 12 4 23 2
30 -7 6 -8 15 -14 19 -14z m-152 1 c13 -5 37 -11 54 -14 33 -5 163 -67 163
-77 0 -4 -18 -13 -39 -20 -41 -13 -96 -7 -86 10 3 6 2 10 -4 10 -5 0 -17 7
-26 16 -9 9 -34 32 -56 50 -44 36 -44 39 -6 25z m315 -50 c3 -8 -1 -12 -9 -9
-7 2 -15 10 -17 17 -3 8 1 12 9 9 7 -2 15 -10 17 -17z m352 7 c0 -10 -20 -12
-87 -10 -48 2 -106 -2 -130 -9 -41 -11 -65 -7 -49 8 9 9 82 17 189 21 58 2 77
0 77 -10z m40 2 c0 -5 -4 -10 -10 -10 -5 0 -10 5 -10 10 0 6 5 10 10 10 6 0
10 -4 10 -10z m-200 -61 c0 -6 4 -8 9 -4 19 11 217 -79 260 -118 13 -12 55
-62 93 -112 82 -105 152 -168 223 -200 52 -24 186 -55 235 -55 16 0 36 -3 44
-6 28 -11 -2 -34 -43 -34 -20 -1 -54 -7 -75 -15 -22 -8 -51 -12 -65 -9 -32 6
-77 11 -113 13 -30 1 -89 52 -184 156 -20 22 -48 58 -63 80 -14 22 -31 43 -36
47 -6 4 -28 23 -49 42 -20 20 -41 36 -45 36 -4 0 -19 9 -32 20 -55 45 -87 62
-122 65 -15 2 -29 4 -30 6 -2 2 -17 21 -35 42 -40 47 -40 54 -2 55 17 0 30 -4
30 -9z m-347 -48 c-9 -11 -21 -17 -26 -14 -6 3 -2 12 8 20 27 19 37 16 18 -6z
m-266 -148 c-85 -109 -109 -171 -174 -443 -29 -119 -133 -245 -219 -264 -22
-5 -51 1 -99 19 -37 14 -77 25 -89 25 -11 1 2 9 31 19 79 27 188 105 250 180
51 60 122 190 138 251 4 14 28 65 53 115 34 65 59 98 90 122 64 48 69 41 19
-24z m-10450 -219 c22 -16 33 -33 33 -50 0 -14 11 -36 24 -49 14 -13 30 -40
37 -60 8 -20 21 -44 31 -55 10 -11 18 -25 18 -32 0 -8 -3 -9 -8 -3 -4 6 -13
11 -21 13 -18 4 -62 35 -103 72 -16 15 -57 43 -89 61 -37 22 -57 39 -54 48 8
22 49 69 65 74 28 9 33 7 67 -19z"/>
<path d="M7178 11583 c6 -2 18 -2 25 0 6 3 1 5 -13 5 -14 0 -19 -2 -12 -5z"/>
<path d="M3686 9735 c-28 -26 -32 -40 -16 -50 19 -12 60 24 60 50 0 31 -10 31
-44 0z"/>
<path d="M12490 8911 c0 -11 4 -22 9 -25 4 -3 6 6 3 19 -5 30 -12 33 -12 6z"/>
<path d="M12520 8780 c0 -19 3 -21 12 -12 9 9 9 15 0 24 -9 9 -12 7 -12 -12z"/>
<path d="M13168 7809 c-3 -8 5 -30 18 -49 24 -34 32 -36 15 -2 -5 9 -13 28
-18 41 -7 18 -11 21 -15 10z"/>
<path d="M13227 7682 c3 -12 9 -25 14 -28 14 -8 11 10 -6 32 -13 18 -14 18 -8
-4z"/>
<path d="M3670 8206 c0 -2 7 -6 15 -10 8 -3 15 -1 15 4 0 6 -7 10 -15 10 -8 0
-15 -2 -15 -4z"/>
<path d="M2299 7373 c-13 -16 -12 -17 4 -4 9 7 17 15 17 17 0 8 -8 3 -21 -13z"/>
<path d="M2255 7211 c3 -5 -4 -13 -16 -16 -11 -4 -18 -9 -16 -12 6 -5 67 25
67 32 0 3 -9 5 -21 5 -11 0 -18 -4 -14 -9z"/>
<path d="M1505 7016 c-81 -35 -103 -53 -138 -115 -26 -46 -31 -68 -35 -140 -7
-130 -55 -219 -148 -272 -61 -34 -77 -35 -140 -9 -26 11 -48 19 -50 17 -9 -9
98 -145 118 -151 43 -11 89 -6 136 15 59 26 87 52 102 92 7 18 20 50 30 72 9
22 23 64 30 93 6 28 19 56 29 62 9 5 13 10 9 10 -10 0 91 100 102 100 5 0 10
4 10 9 0 12 69 44 84 38 7 -3 17 3 23 13 10 14 81 42 118 45 6 0 15 3 20 6 6
3 26 6 45 8 19 1 37 5 40 10 3 4 29 11 59 14 29 4 65 14 80 24 14 10 37 24 51
30 24 12 24 13 -10 8 -120 -18 -136 -18 -216 10 -62 22 -102 29 -184 32 -95 3
-111 1 -165 -21z m240 -84 c-5 -5 -40 -17 -76 -26 -70 -17 -142 -51 -196 -92
-39 -29 -43 -30 -43 -3 0 12 22 43 54 73 l54 52 108 3 c69 1 105 -1 99 -7z"/>
<path d="M12923 6470 c-3 -11 -11 -20 -19 -20 -7 0 -26 -17 -41 -37 -15 -21
-36 -47 -46 -58 -32 -34 -78 -143 -87 -203 -12 -84 -5 -248 14 -317 9 -33 36
-101 60 -150 38 -78 57 -103 133 -175 49 -47 107 -93 128 -104 22 -10 48 -22
57 -27 41 -21 189 -51 251 -51 93 0 123 5 310 53 30 7 56 22 72 40 13 16 34
33 47 39 13 5 31 15 40 22 22 16 32 5 31 -35 -4 -431 -13 -859 -17 -866 -4 -5
-1 -22 6 -38 16 -39 24 -120 19 -213 -3 -74 7 -299 15 -311 3 -6 0 -15 -7 -20
-8 -5 -9 -9 -4 -9 6 0 9 -17 7 -40 -4 -40 -4 -40 -46 -39 -73 3 -598 -11 -606
-16 -25 -15 -704 -19 -850 -5 -172 17 -290 11 -290 -15 0 -11 12 -17 55 -26 6
-2 16 -9 23 -16 7 -7 22 -13 32 -13 10 0 20 -4 22 -10 4 -14 235 -39 373 -41
19 0 240 11 322 16 50 3 84 1 88 -5 4 -6 10 -8 15 -5 5 3 40 6 77 6 37 1 77 7
88 13 11 7 42 14 70 15 27 1 52 6 55 10 3 5 37 8 75 6 39 -1 75 1 80 5 19 14
94 20 101 9 5 -8 8 -8 14 0 8 14 48 22 116 25 29 1 60 8 69 16 14 12 19 12 22
2 3 -6 10 -9 16 -5 14 9 32 13 67 18 14 2 27 4 30 4 3 1 5 18 6 39 0 20 3 64
7 97 28 262 35 432 39 959 2 387 2 392 -20 441 -13 27 -30 58 -40 68 -16 18
-16 20 3 33 11 8 20 19 20 24 0 11 50 50 65 50 6 0 9 4 6 9 -3 4 3 16 14 26
11 10 24 33 30 51 7 19 15 34 20 34 8 0 66 219 62 234 -2 5 -4 32 -6 60 -4 68
-16 125 -27 132 -5 3 -9 14 -9 25 0 10 -4 19 -10 19 -5 0 -10 7 -10 15 0 8
-18 28 -40 46 -22 18 -37 36 -34 41 3 4 -3 11 -13 15 -10 4 -25 15 -34 25 -9
10 -21 18 -27 18 -6 0 -17 6 -24 13 -7 6 -32 21 -55 32 -22 11 -40 22 -38 26
2 3 -2 6 -10 6 -19 0 -8 -16 18 -28 74 -32 166 -115 199 -179 7 -14 15 -27 18
-30 13 -13 28 -50 40 -99 30 -127 -17 -307 -113 -433 -29 -38 -168 -156 -196
-166 -9 -3 -27 -13 -41 -22 -14 -9 -40 -22 -59 -29 l-35 -11 25 27 c63 69 101
122 95 132 -4 5 9 25 27 45 18 19 42 52 52 73 10 21 26 54 36 74 10 20 15 39
12 43 -4 4 -3 10 3 14 18 13 51 158 41 183 -5 13 -10 37 -13 54 -2 16 -13 42
-24 57 -11 15 -20 31 -20 35 -1 13 -37 53 -48 53 -5 0 -12 8 -14 18 -4 13 -21
23 -52 31 -30 7 -46 17 -46 27 0 10 -6 14 -14 11 -8 -3 -23 3 -34 13 -11 10
-22 17 -24 14 -3 -2 -31 5 -63 16 -71 24 -74 25 -44 3 37 -28 67 -43 83 -43 8
0 21 -6 28 -13 7 -7 28 -19 47 -27 49 -20 156 -130 171 -175 15 -47 8 -147
-16 -201 -73 -173 -121 -250 -237 -387 -68 -79 -106 -97 -207 -97 -69 0 -90 4
-143 30 -34 16 -83 49 -108 72 -74 68 -168 216 -185 293 -16 69 -19 108 -13
182 6 78 10 89 52 152 50 75 106 126 182 164 54 27 136 47 190 47 19 0 37 5
41 12 4 7 3 8 -4 4 -6 -4 -22 0 -34 7 -33 21 -148 30 -205 16 -76 -19 -113
-42 -186 -117 -73 -76 -109 -143 -133 -244 l-14 -63 4 100 c5 105 37 239 77
318 24 45 41 97 32 97 -3 0 -7 -9 -10 -20z"/>
<path d="M9269 6375 c-6 -6 -1616 -17 -2265 -16 -304 1 -625 -3 -715 -9 -139
-8 -165 -7 -179 5 -24 22 -37 18 -42 -10 -3 -14 -1 -25 4 -25 6 0 8 -17 6 -37
-3 -21 -2 -65 3 -98 4 -33 10 -89 14 -125 3 -36 7 -76 10 -90 6 -39 14 -118
20 -203 3 -44 10 -86 14 -95 17 -33 30 -87 27 -107 -2 -11 3 -41 11 -67 7 -26
13 -50 12 -55 -1 -4 0 -10 1 -13 2 -3 4 -25 5 -51 1 -25 5 -50 9 -57 3 -6 7
-33 8 -59 0 -26 3 -42 5 -35 13 35 56 -10 46 -48 l-6 -22 -651 8 c-1288 17
-2492 7 -2616 -23 -25 -6 -25 -6 -6 16 11 11 25 21 33 21 7 0 13 4 13 9 0 5
13 23 30 39 16 17 30 39 30 50 0 11 7 25 14 32 17 13 35 59 67 173 13 42 27
77 32 77 4 0 5 6 0 13 -4 6 -9 44 -9 82 -1 39 -5 86 -8 105 -4 19 -9 50 -12
68 -4 17 -9 32 -13 32 -4 0 -7 10 -8 23 -1 12 -19 36 -39 53 -21 18 -38 42
-39 54 -1 12 -8 26 -15 30 -8 5 -15 21 -18 37 -5 40 -11 41 -38 10 -25 -29
-25 -29 -52 -11 -15 10 -43 27 -62 37 -35 19 -35 19 -18 0 10 -11 38 -29 63
-42 40 -20 45 -26 44 -54 0 -18 -4 -41 -9 -52 l-8 -20 -7 20 c-3 11 -11 28
-16 37 -5 10 -9 22 -9 28 0 5 -18 26 -40 47 -22 21 -43 49 -45 62 -2 13 -7 26
-11 30 -4 3 -4 -2 -1 -11 9 -25 -7 -22 -40 7 -45 40 -52 45 -58 45 -4 0 -13 7
-21 15 -8 8 -31 14 -50 13 -20 -1 -39 4 -43 11 -5 7 -14 11 -22 10 -8 -2 -24
2 -36 9 -16 9 -23 9 -23 2 0 -7 -14 -11 -32 -10 -18 1 -49 1 -68 0 -56 -2 -8
-16 85 -24 61 -5 96 -14 150 -40 67 -32 175 -117 175 -137 0 -5 11 -26 25 -47
42 -64 58 -136 53 -238 -5 -83 -9 -99 -52 -186 -60 -123 -115 -181 -226 -238
-84 -43 -86 -44 -203 -47 -112 -3 -121 -2 -195 27 -134 54 -204 113 -259 220
-37 73 -38 78 -37 175 2 156 45 260 153 378 46 49 51 59 31 53 -14 -4 -34 -10
-45 -13 -23 -7 -57 -31 -122 -88 -47 -41 -81 -97 -94 -155 -4 -19 -12 -53 -18
-75 -47 -180 64 -437 226 -520 21 -10 49 -27 63 -36 73 -48 218 -66 385 -47
111 12 153 29 253 103 40 29 70 60 81 83 9 20 29 57 45 81 15 23 29 51 31 61
2 10 8 27 14 38 6 11 8 22 5 25 -3 3 0 23 7 44 7 21 14 40 14 43 1 3 5 17 9
31 4 14 3 56 -2 92 l-9 67 28 0 c30 0 59 23 59 47 0 24 33 -23 54 -77 22 -58
31 -201 16 -260 -6 -25 -15 -61 -20 -80 -16 -68 -49 -141 -93 -208 -51 -75
-68 -94 -147 -155 -171 -131 -236 -157 -415 -162 -93 -3 -135 0 -185 14 -65
18 -75 21 -160 59 -69 30 -203 153 -261 238 -120 178 -142 368 -68 588 34 103
83 191 158 285 28 35 51 69 51 75 0 6 -5 3 -11 -6 -5 -10 -19 -18 -29 -18 -11
0 -38 -18 -61 -40 -23 -22 -46 -40 -50 -40 -5 0 -32 -28 -60 -62 -53 -63 -99
-148 -99 -181 0 -10 -4 -27 -10 -37 -5 -10 -17 -60 -26 -112 -13 -76 -14 -108
-5 -178 12 -94 55 -225 97 -298 30 -51 224 -252 244 -252 7 0 24 -9 39 -19 15
-11 47 -27 72 -36 24 -9 56 -23 70 -30 14 -8 36 -16 50 -19 13 -2 49 -10 79
-17 120 -26 418 21 453 72 8 11 39 35 70 53 30 18 74 52 97 75 l42 42 167 -10
c525 -33 740 -39 1521 -46 344 -3 866 -8 1160 -11 294 -3 911 -7 1370 -10 459
-3 1062 -7 1340 -9 278 -2 550 0 605 5 55 5 213 12 350 15 138 3 340 8 450 12
110 3 207 5 215 5 8 0 53 0 100 -1 75 -1 169 3 595 25 61 3 191 7 290 9 99 2
200 8 225 13 38 9 289 23 660 37 245 10 380 22 380 36 0 13 94 11 107 -2 7 -7
23 -7 54 1 24 7 87 13 140 14 52 2 100 5 105 8 5 3 56 9 114 13 212 13 265 24
90 18 -91 -3 -214 -7 -275 -9 -60 -1 -155 -6 -210 -9 -55 -3 -138 -8 -185 -10
-47 -3 -121 -7 -165 -10 -44 -3 -150 -8 -235 -10 -85 -3 -177 -7 -205 -10 -84
-7 -305 -15 -630 -21 -170 -4 -321 -8 -335 -10 -14 -2 -245 -6 -515 -9 -269
-3 -647 -8 -840 -11 -472 -9 -1762 -3 -2770 11 -148 3 -287 4 -309 5 -37 0
-38 1 -31 27 4 16 9 30 11 32 2 2 39 -3 82 -12 118 -25 233 -36 391 -37 79 0
146 -2 150 -4 5 -4 212 2 745 18 256 9 574 18 671 20 50 1 99 7 111 13 11 6
71 15 132 19 62 4 112 11 112 16 0 5 42 8 93 6 50 -1 128 1 172 5 44 4 124 9
177 12 54 2 102 6 108 10 15 9 91 16 215 19 61 2 118 6 127 10 9 4 22 4 29 0
7 -4 9 -3 6 3 -5 7 14 11 53 10 56 0 60 -2 60 -24 0 -33 17 -29 25 7 6 28 10
30 50 30 24 0 46 4 49 9 3 5 -13 9 -37 9 -23 0 -45 1 -48 1 -5 1 2 55 15 110
7 29 22 248 19 276 -1 11 -5 110 -8 220 -9 289 -24 331 -83 234 -20 -34 -22
-49 -22 -190 1 -85 3 -170 5 -189 2 -19 5 -62 6 -95 1 -33 6 -65 11 -72 14
-18 21 -280 7 -288 -11 -8 -51 -9 -404 -20 -380 -11 -709 -27 -840 -40 -27 -3
-180 -8 -340 -10 -159 -2 -315 -6 -345 -9 -30 -2 -336 -6 -680 -10 -344 -3
-667 -8 -719 -11 l-93 -5 7 37 c26 141 24 406 -6 598 -5 33 -9 77 -9 97 0 56
-19 135 -39 159 -17 21 -17 21 -43 -30 l-26 -52 -6 55 c-8 63 -3 80 22 67 9
-5 44 -12 77 -15 33 -3 94 -12 135 -20 107 -21 497 -26 980 -13 398 11 522 12
527 4 3 -5 17 -6 31 -2 14 3 87 6 161 6 74 0 142 4 150 9 9 4 62 10 119 14 57
3 110 9 119 14 8 5 34 5 57 1 39 -7 267 -4 350 5 22 2 50 0 63 -5 13 -5 25 -4
28 1 3 5 40 9 83 10 42 1 95 2 118 2 22 1 45 -2 52 -5 6 -4 13 -4 15 0 3 5 28
8 55 8 28 0 48 3 46 7 -3 5 6 8 20 8 13 0 26 -6 29 -12 3 -10 7 -10 17 -1 8 7
22 8 40 3 16 -5 30 -6 32 -4 2 2 46 4 97 5 146 2 104 13 -99 24 -141 9 -334
14 -718 19 -162 2 -296 7 -299 9 -11 12 259 22 366 14 39 -3 83 0 110 9 27 8
104 14 186 15 77 2 145 7 152 12 7 5 38 5 75 -1 35 -5 128 -8 208 -7 240 6
281 4 301 -8 48 -30 58 -123 46 -444 -3 -70 -1 -123 4 -123 11 0 12 -44 2 -54
-7 -7 -12 -58 -12 -121 0 -11 -1 -67 -2 -125 0 -58 3 -102 7 -97 8 8 11 32 14
122 1 33 6 78 10 100 5 22 11 110 15 195 4 85 8 193 10 240 10 217 8 257 -17
302 -38 69 -80 79 -351 77 -260 0 -328 1 -338 6 -3 3 -8 3 -10 0z m-3024 -79
c22 -1 47 -6 55 -9 43 -18 270 -29 674 -33 247 -2 452 -6 454 -9 6 -6 -141 -8
-523 -6 -285 1 -621 -13 -686 -28 l-36 -8 -15 48 c-16 55 -14 61 16 54 12 -3
39 -7 61 -9z m1965 -36 c0 -6 -26 -9 -62 -8 l-63 1 55 7 c30 4 58 7 63 8 4 1
7 -2 7 -8z m-241 -4 c-3 -3 -115 -7 -249 -9 -135 -2 -213 -1 -175 3 81 7 431
12 424 6z m278 -2 c-3 -3 -12 -4 -19 -1 -8 3 -5 6 6 6 11 1 17 -2 13 -5z
m-1997 -754 c0 -16 5 -32 10 -35 6 -4 7 -13 1 -23 -4 -9 -6 -42 -3 -72 10 -97
8 -114 -9 -118 -15 -3 -16 13 -15 141 0 80 4 143 9 140 4 -2 7 -17 7 -33z"/>
<path d="M9922 5290 c0 -19 2 -27 5 -17 2 9 2 25 0 35 -3 9 -5 1 -5 -18z"/>
<path d="M13255 5259 c7 -11 52 -12 58 -1 3 4 -10 8 -29 9 -19 1 -32 -3 -29
-8z"/>
<path d="M13355 5260 c3 -5 8 -10 11 -10 2 0 4 5 4 10 0 6 -5 10 -11 10 -5 0
-7 -4 -4 -10z"/>
<path d="M1986 4845 c-28 -37 -52 -92 -43 -101 3 -3 1 -20 -4 -37 -5 -17 -12
-126 -15 -242 -8 -243 -8 -246 3 -254 10 -8 13 -34 14 -146 0 -22 1 -89 2
-150 2 -103 1 -110 -18 -112 -11 -1 -50 -5 -87 -8 -38 -4 -68 -10 -68 -15 0
-5 19 -13 43 -19 23 -5 67 -17 97 -26 30 -9 93 -18 140 -20 47 -3 99 -8 117
-10 17 -3 182 -8 365 -10 183 -3 396 -8 473 -11 168 -8 202 -7 224 2 29 12
141 18 281 14 41 -2 105 0 143 4 46 4 67 3 67 -5 0 -8 4 -8 14 0 10 9 44 10
113 6 54 -3 108 -6 121 -5 21 0 22 -4 23 -93 2 -239 8 -359 24 -437 38 -191
124 -277 265 -264 103 9 193 110 225 249 9 39 21 90 27 115 9 35 14 318 7 390
0 8 2 42 6 75 9 72 9 44 0 245 -10 246 -14 300 -27 360 -6 30 -11 61 -9 68 1
6 -2 12 -7 12 -6 0 -13 11 -16 25 -4 14 -24 38 -46 53 -22 15 -37 33 -35 40 2
6 -1 13 -8 14 -7 0 -16 2 -22 2 -5 1 -19 7 -30 13 -30 16 -95 22 -140 13 -39
-8 -39 -8 18 -9 74 -1 156 -37 189 -83 65 -90 79 -169 73 -416 -16 -600 -26
-744 -67 -884 -29 -101 -38 -118 -79 -161 -48 -50 -48 -50 -127 -32 -35 8 -56
38 -87 127 -18 49 -32 238 -34 447 l-2 144 73 -5 c78 -6 65 8 -21 20 l-44 7 2
185 c2 226 -13 448 -30 464 -9 8 -10 8 -5 -2 4 -7 3 -18 -2 -25 -6 -7 -15 -41
-21 -77 -5 -36 -17 -96 -25 -135 -9 -38 -18 -140 -21 -225 -6 -170 -8 -182
-27 -175 -7 2 -48 7 -90 9 -42 3 -92 8 -112 12 -23 4 -36 2 -36 -4 0 -7 -24
-9 -67 -6 -38 2 -192 6 -343 8 -820 13 -1346 32 -1356 48 -3 5 -2 14 3 21 8
11 25 113 38 232 3 22 7 54 10 70 5 33 16 378 19 592 1 153 -7 173 -48 118z"/>
<path d="M11528 4549 c-21 -11 -38 -26 -38 -34 0 -9 -7 -18 -15 -21 -8 -4 -15
-17 -15 -29 0 -13 -5 -27 -10 -30 -6 -4 -8 -11 -5 -16 4 -5 2 -9 -3 -9 -5 0
-10 -6 -11 -12 -4 -32 -22 -312 -22 -348 3 -218 9 -329 18 -345 6 -11 13 -23
15 -26 1 -3 -3 -13 -10 -22 -8 -9 -10 -22 -6 -28 4 -7 7 -55 6 -108 -1 -67 2
-89 8 -74 11 28 20 175 25 428 2 105 6 197 8 205 3 8 8 53 11 100 3 47 12 123
20 170 9 47 16 90 16 96 0 6 22 21 50 34 45 21 51 22 72 8 37 -24 74 -104 101
-218 40 -164 50 -274 51 -555 1 -269 -14 -453 -40 -510 -22 -47 -68 -99 -107
-120 -30 -16 -39 -17 -66 -5 -38 15 -72 77 -91 163 -8 32 -17 60 -22 63 -4 3
-5 -2 -2 -10 4 -9 1 -16 -6 -16 -10 0 -11 -22 -5 -92 11 -145 59 -208 157
-208 53 0 133 44 176 96 30 37 31 37 74 26 24 -6 70 -14 103 -18 33 -4 62 -8
65 -9 12 -3 192 -17 260 -20 41 -2 102 -7 135 -13 33 -6 67 -10 75 -10 57 -1
301 -14 330 -18 19 -3 116 -9 215 -14 214 -10 306 -19 323 -33 8 -6 12 -6 12
3 0 9 28 10 118 5 64 -4 132 -8 150 -10 19 -2 90 1 158 6 108 9 134 15 199 44
106 49 195 142 214 225 24 104 42 329 32 410 -23 179 -102 304 -218 346 -41
14 -82 19 -53 6 8 -4 38 -32 66 -62 45 -48 74 -102 80 -150 2 -8 9 -49 18 -90
23 -115 0 -417 -35 -477 -47 -77 -143 -138 -243 -154 -33 -6 -72 -12 -85 -14
-49 -9 -209 -4 -336 9 -109 11 -215 18 -270 17 -27 -1 -99 -2 -160 -3 -60 -2
-112 -6 -115 -9 -3 -4 -37 -2 -75 6 -44 8 -123 12 -210 10 -77 -1 -147 1 -156
6 -9 4 -29 5 -45 0 -16 -4 -67 -4 -114 1 -139 13 -220 16 -220 6 0 -4 -13 -2
-29 7 -19 9 -32 11 -36 5 -4 -6 -10 -8 -15 -5 -5 3 -44 8 -86 10 -42 2 -78 6
-81 8 -2 3 5 32 17 66 33 99 45 228 44 491 -1 357 -14 485 -64 646 -43 139
-57 163 -119 206 -45 31 -62 38 -100 37 -25 -1 -63 -10 -83 -20z"/>
<path d="M6986 3833 c-1 -2 -376 -5 -832 -8 -817 -6 -1223 -16 -1419 -36 -103
-10 -144 -24 -77 -26 20 -1 64 -4 97 -7 33 -3 87 -8 120 -10 33 -2 150 -11
260 -20 133 -10 267 -14 400 -11 110 3 544 7 965 10 421 2 950 8 1175 12 226
4 509 8 630 9 359 4 669 15 681 25 6 5 35 6 65 3 50 -6 773 -16 864 -12 79 3
193 2 385 -6 107 -4 202 -8 210 -8 8 0 49 3 91 7 45 5 79 4 82 -2 3 -5 38 -8
79 -6 48 1 75 -2 80 -10 6 -9 8 -9 8 0 0 10 30 12 128 8 77 -2 115 -1 97 4
-16 5 -64 9 -105 10 -41 1 -102 5 -135 10 -46 7 -345 23 -435 23 -8 0 -123 4
-255 9 -594 20 -1041 30 -1310 29 -88 0 -257 1 -375 2 -312 3 -1471 3 -1474 1z"/>
<path d="M11160 3738 c0 -4 16 -8 35 -8 19 0 35 2 35 4 0 2 -16 6 -35 8 -19 2
-35 0 -35 -4z"/>
<path d="M1531 3695 c10 -19 1 -169 -16 -270 -11 -69 -15 -139 -13 -225 3
-109 7 -132 30 -181 36 -79 87 -131 171 -176 l72 -38 320 -3 c176 -1 417 -4
535 -6 118 -1 225 1 237 5 12 4 43 9 70 10 26 0 85 6 130 11 45 6 90 7 100 3
13 -6 4 -10 -36 -16 -64 -9 -127 -35 -136 -57 -3 -9 -3 -13 0 -10 4 4 22 -2
39 -12 45 -25 142 -20 276 14 58 14 121 26 140 25 66 0 79 1 85 11 3 6 14 10
24 10 10 0 24 7 31 15 9 11 16 12 25 5 7 -6 28 -8 46 -4 54 10 79 13 158 19
41 3 92 11 114 17 32 10 41 10 45 0 5 -15 32 -16 32 -2 0 7 7 7 18 2 9 -4 23
-7 30 -6 6 1 42 2 79 3 86 1 77 10 -18 16 -41 3 -87 7 -104 10 -16 2 -111 7
-210 10 -99 3 -209 8 -245 10 -36 3 -423 8 -862 10 -480 3 -822 8 -861 15 -82
13 -140 43 -182 95 -42 52 -53 120 -59 370 -4 198 -17 272 -54 312 -9 10 -14
14 -11 8z"/>
<path d="M12856 3418 c-20 -28 -20 -62 -1 -78 8 -7 15 -18 15 -25 0 -22 37
-24 59 -3 12 10 21 15 21 11 1 -4 9 3 20 16 25 29 18 42 -20 35 -26 -6 -28 -4
-23 15 4 15 -1 27 -13 36 -27 20 -40 18 -58 -7z"/>
<path d="M11425 3400 c3 -5 8 -10 11 -10 2 0 4 5 4 10 0 6 -5 10 -11 10 -5 0
-7 -4 -4 -10z"/>
<path d="M6836 3335 c3 -16 7 -38 10 -47 7 -24 -5 -58 -20 -58 -19 0 -51 39
-49 59 6 33 -13 46 -54 35 -34 -8 -38 -13 -41 -43 -5 -45 12 -80 56 -116 30
-25 45 -30 94 -31 55 -1 59 0 64 25 3 14 8 34 11 44 3 10 0 31 -5 45 -6 15
-14 36 -18 47 -4 11 -6 23 -6 28 1 4 -2 6 -7 5 -5 -2 -16 6 -25 17 -14 19 -15
19 -10 -10z"/>
<path d="M8981 3324 c-26 -59 11 -123 85 -143 46 -13 67 -5 83 29 7 16 17 28
22 27 5 -1 17 12 27 28 9 17 22 33 27 37 6 4 0 8 -13 8 -12 0 -25 -6 -28 -14
-5 -12 -86 -76 -97 -76 -3 0 -8 23 -12 50 -10 75 -69 108 -94 54z"/>
<path d="M2796 3297 c-26 -19 -32 -91 -11 -123 9 -14 14 -32 11 -39 -6 -16 35
-29 45 -14 5 8 21 13 70 18 6 1 31 49 35 68 1 8 -8 7 -32 -3 -49 -21 -52 -18
-46 31 7 66 -27 95 -72 62z"/>
<path d="M4545 2960 c-93 -6 -82 -9 120 -34 66 -9 136 -20 155 -25 67 -19 316
-51 510 -66 364 -29 435 -34 670 -45 129 -6 312 -15 405 -20 94 -5 251 -9 349
-10 99 0 182 -2 185 -4 7 -4 743 -17 1271 -21 206 -2 400 0 430 5 30 5 147 12
259 15 118 3 210 10 217 16 9 7 40 7 101 0 87 -9 324 -7 558 5 66 4 172 8 235
9 63 2 151 6 195 9 44 3 186 8 315 10 147 3 260 10 302 19 55 12 71 12 85 2
12 -9 25 -10 42 -3 14 5 55 9 91 9 36 -1 108 3 160 8 52 5 110 10 129 10 19 1
31 4 28 7 -7 7 -71 7 -457 -1 -135 -3 -423 -7 -640 -10 -217 -2 -600 -7 -850
-11 -739 -12 -1885 -10 -2315 3 -220 7 -466 14 -546 16 -80 2 -151 7 -157 11
-7 4 -144 14 -305 22 -160 7 -346 18 -412 24 -128 10 -824 48 -965 52 -47 2
-121 1 -165 -2z"/>
<path d="M12121 2914 c-7 -32 -14 -70 -17 -84 -2 -14 -11 -59 -19 -100 -11
-55 -17 -165 -20 -411 -5 -316 -4 -340 15 -399 11 -34 32 -84 47 -112 38 -69
123 -145 179 -159 29 -8 44 -17 44 -28 0 -26 46 -72 93 -94 47 -22 172 -26
221 -8 15 6 53 11 84 11 31 0 75 5 97 11 22 5 54 12 70 15 48 9 135 64 135 85
0 5 23 29 50 55 28 26 50 51 50 56 0 5 9 18 20 30 11 12 20 31 20 41 0 11 11
35 25 53 14 18 25 37 25 43 0 6 4 11 9 11 4 0 14 21 20 47 7 27 16 62 21 78 5
17 12 61 15 100 4 38 8 72 11 76 2 4 6 51 8 105 2 55 10 113 16 129 24 57 49
166 50 216 0 36 -21 66 -39 55 -10 -7 -24 21 -16 34 3 5 7 36 10 70 2 34 7 71
10 83 7 22 7 22 -8 2 -8 -11 -23 -57 -33 -103 -11 -48 -23 -81 -29 -78 -7 2
-12 -16 -13 -49 -1 -29 -9 -69 -17 -89 -8 -19 -15 -57 -16 -83 0 -26 -4 -57
-9 -68 -5 -12 -8 26 -7 101 3 163 -18 190 -80 102 -28 -41 -28 -43 -28 -190 0
-81 3 -148 8 -148 4 0 7 -9 7 -21 0 -23 -26 -54 -34 -40 -3 5 -4 100 -1 212 4
175 2 207 -11 228 l-17 24 -28 -33 c-39 -44 -52 -98 -49 -200 1 -47 2 -112 2
-145 0 -33 4 -62 8 -65 7 -4 15 -57 10 -70 -1 -3 -2 -52 -4 -110 -1 -58 0 -97
2 -87 2 9 8 17 13 17 5 0 9 6 9 14 0 7 6 19 14 25 16 13 41 101 45 154 1 10 9
17 21 17 17 0 20 -7 20 -41 0 -42 -29 -139 -42 -139 -3 0 -9 -13 -13 -30 -4
-16 -10 -30 -15 -30 -5 0 -18 -16 -30 -35 -12 -19 -28 -35 -35 -35 -8 0 -19
-8 -25 -17 -10 -16 -11 -16 -6 2 16 67 24 285 13 320 -4 12 -9 47 -11 79 -5
68 -25 98 -52 76 -15 -13 -16 -4 -9 114 6 108 4 131 -10 152 -13 20 -18 22
-29 12 -24 -24 -51 -72 -52 -93 -2 -25 -13 -223 -13 -248 -1 -10 -6 -15 -11
-12 -7 4 -9 83 -7 222 3 200 5 216 23 227 29 17 66 26 78 19 9 -6 71 -13 133
-14 13 -1 21 -4 19 -8 -3 -4 4 -8 15 -8 31 -3 11 17 -39 38 -27 12 -42 23 -36
29 5 5 49 11 97 14 49 2 91 7 95 10 5 6 -14 9 -21 4 -2 -2 -10 2 -18 8 -8 5
-32 12 -54 13 -22 2 -47 7 -55 11 -8 4 -71 6 -140 5 -379 -10 -573 -38 -556
-81 4 -9 -7 -27 -29 -47 -26 -24 -39 -48 -50 -91 -9 -33 -13 -65 -11 -73 3 -7
1 -15 -5 -18 -6 -4 -9 32 -7 102 2 66 -1 115 -8 127 -11 18 -12 17 -31 -3
l-21 -22 -7 77 c-11 115 -19 129 -34 58z m571 -231 c-21 -127 -19 -384 3 -491
l6 -27 -15 25 c-8 14 -12 28 -10 32 2 3 0 18 -6 33 -9 25 -30 120 -44 206 -4
22 -18 46 -37 63 -19 17 -29 36 -28 49 1 12 -1 33 -4 47 -3 14 -8 51 -11 82
l-6 57 37 3 c21 2 59 4 84 6 l45 2 -14 -87z m-219 67 c7 0 6 -4 -3 -10 -12 -7
-15 -29 -13 -102 1 -51 6 -113 12 -138 10 -42 19 -113 21 -167 0 -13 4 -23 9
-23 12 0 21 -40 28 -119 3 -36 6 -77 7 -91 2 -14 4 -34 5 -45 2 -20 2 -20 16
-1 8 11 15 34 15 52 0 18 5 45 11 61 l11 28 15 -35 c9 -19 26 -58 39 -85 13
-28 24 -61 24 -75 1 -23 2 -24 14 -7 7 9 12 29 10 44 -1 15 4 36 12 47 10 15
14 16 15 6 3 -39 9 -88 14 -114 5 -31 13 -30 -85 -11 -29 6 -94 37 -98 48 -2
4 -8 7 -14 7 -6 0 -26 14 -45 30 -18 17 -45 30 -58 30 -23 0 -25 -4 -25 -43 0
-35 6 -49 33 -74 37 -36 117 -74 145 -68 11 2 31 -3 46 -10 34 -18 58 -21 74
-12 7 5 34 10 60 12 47 3 106 12 129 20 35 12 12 -95 -32 -145 -12 -14 -32
-40 -44 -57 -12 -18 -29 -33 -36 -33 -8 0 -26 -11 -41 -25 -31 -29 -54 -30
-144 -10 -197 46 -353 141 -396 241 -38 87 -44 119 -44 229 0 104 6 139 12 62
1 -20 6 -37 11 -37 5 0 18 -11 29 -25 11 -14 25 -25 31 -25 7 1 5 6 -4 13 -24
18 -40 77 -31 117 5 19 7 50 5 68 -1 17 1 32 7 32 14 0 20 -15 25 -67 2 -26 7
-82 11 -123 6 -71 10 -98 14 -110 1 -3 2 -9 1 -14 -1 -5 5 -6 13 -3 19 7 34
-45 37 -127 2 -36 3 -38 15 -21 13 17 14 16 23 -8 5 -14 19 -28 30 -32 10 -3
27 -17 36 -31 9 -13 20 -22 25 -19 6 4 14 -5 19 -18 9 -22 21 -29 81 -44 8 -2
44 -5 79 -6 45 -3 64 0 68 10 3 7 13 13 22 13 9 0 30 11 46 25 l30 25 -29 -15
c-16 -7 -53 -17 -82 -21 -45 -5 -61 -2 -109 21 -57 28 -135 99 -135 123 0 7
-10 32 -22 55 -18 35 -22 57 -20 128 0 47 6 98 12 113 10 27 13 161 10 443 -1
139 2 158 27 149 8 -3 20 -6 26 -6z m-246 -252 c-2 -13 -4 -3 -4 22 0 25 2 35
4 23 2 -13 2 -33 0 -45z m583 -330 c0 -5 -4 -8 -10 -8 -5 0 -10 10 -10 23 0
18 2 19 10 7 5 -8 10 -18 10 -22z m437 -10 c-3 -8 -6 -5 -6 6 -1 11 2 17 5 13
3 -3 4 -12 1 -19z m-365 -30 c2 -62 2 -62 19 -89 13 -20 15 -38 10 -93 -1 -7
-110 1 -119 9 -1 1 4 15 12 31 29 60 46 106 52 144 9 53 24 51 26 -2z m318
-111 c0 -30 -28 -126 -41 -137 -3 -3 -24 -30 -46 -60 -37 -51 -145 -161 -157
-161 -3 0 -21 -6 -40 -14 -20 -8 -45 -15 -56 -15 -19 0 -18 3 12 33 50 50 180
196 192 216 6 10 25 38 41 61 45 64 64 94 71 107 10 21 24 4 24 -30z m-413 1
c-3 -8 -6 -5 -6 6 -1 11 2 17 5 13 3 -3 4 -12 1 -19z m-357 -413 c14 -4 39
-13 55 -20 17 -7 47 -17 68 -20 27 -5 35 -10 25 -16 -15 -10 -88 -9 -88 2 0 3
-11 4 -25 1 -14 -2 -25 0 -25 4 0 5 -13 15 -29 22 -33 15 -52 47 -23 38 9 -2
28 -7 42 -11z"/>
<path d="M11418 2857 c7 -8 26 -11 52 -9 51 5 48 7 -14 16 -39 5 -46 3 -38 -7z"/>
<path d="M11378 2853 c7 -3 16 -2 19 1 4 3 -2 6 -13 5 -11 0 -14 -3 -6 -6z"/>
<path d="M4238 2833 c7 -3 16 -2 19 1 4 3 -2 6 -13 5 -11 0 -14 -3 -6 -6z"/>
<path d="M2932 2738 c-7 -7 -12 -18 -12 -25 0 -7 -4 -13 -8 -13 -24 0 -31 -70
-26 -278 4 -242 17 -370 44 -452 10 -30 21 -77 25 -105 3 -27 10 -52 15 -55 5
-3 22 -32 39 -65 43 -87 84 -139 124 -158 19 -10 37 -22 39 -28 4 -13 94 -30
173 -33 28 -1 59 -5 71 -9 11 -4 52 0 90 8 38 9 78 17 89 18 11 1 24 8 28 15
4 6 13 12 20 12 7 0 29 9 50 20 20 11 43 20 51 20 8 0 22 9 30 21 8 12 19 18
25 14 6 -3 11 -1 11 4 0 6 5 11 11 11 5 0 26 11 45 24 39 26 27 41 -16 20
-107 -55 -199 -96 -222 -99 -15 -2 -51 -8 -80 -14 -66 -12 -156 -9 -186 8 -24
13 -42 48 -42 81 0 16 4 17 29 10 17 -5 33 -4 38 1 6 6 20 11 32 12 11 1 21 6
21 11 0 6 5 5 12 -2 14 -14 58 -16 58 -3 0 5 16 15 36 21 20 7 53 22 75 35
l40 22 -51 -1 c-27 -1 -50 -4 -50 -8 0 -11 -77 -10 -84 0 -2 4 1 62 8 127 8
66 14 167 14 224 1 57 3 106 6 109 4 3 6 -10 6 -29 1 -92 8 -149 19 -163 12
-14 20 -66 24 -158 1 -21 6 -38 10 -38 5 0 7 -10 5 -22 -2 -12 3 -23 11 -26
10 -3 12 0 8 11 -3 9 -2 17 3 19 5 2 11 35 13 73 5 66 6 70 28 69 13 -1 29 5
37 12 7 8 25 14 40 14 45 0 58 15 31 34 -13 9 -31 16 -39 16 -9 0 -20 4 -25 9
-6 5 -21 11 -34 13 -29 4 -31 17 -32 211 -1 115 -4 141 -19 159 l-17 22 -32
-31 c-22 -22 -31 -41 -31 -64 0 -30 -1 -31 -18 -16 -17 15 -20 14 -46 -14 -38
-40 -46 -82 -45 -224 1 -155 1 -149 11 -156 5 -3 10 -46 11 -95 2 -95 1 -97
-53 -81 -44 12 -50 19 -45 51 2 17 7 103 10 191 3 88 12 191 20 230 16 76 20
171 7 179 -5 3 -25 -12 -45 -32 -53 -54 -69 -122 -73 -311 -3 -84 -7 -158 -11
-164 -3 -5 1 -15 10 -22 15 -11 25 -65 12 -65 -9 0 -40 33 -59 64 -17 27 -19
59 -21 365 -2 185 -6 344 -10 353 -6 16 -8 16 -25 0 -10 -9 -27 -32 -38 -50
-21 -35 -25 -34 -36 11 -9 39 -24 35 -63 -15 l-21 -28 -4 90 c-4 95 -21 133
-46 108z m145 -590 c-3 -7 -5 -2 -5 12 0 14 2 19 5 13 2 -7 2 -19 0 -25z m8
-67 c-2 -5 4 -31 15 -60 14 -40 17 -63 11 -101 -6 -36 -4 -55 5 -69 7 -10 16
-38 20 -62 4 -24 12 -47 18 -51 8 -5 7 -8 -1 -8 -8 0 -10 -7 -6 -17 16 -43
-27 12 -56 70 -42 85 -62 169 -50 210 5 17 9 43 9 57 0 15 6 38 12 52 12 26
13 26 21 7 4 -12 5 -24 2 -28z m160 -345 c21 -16 34 -37 38 -58 3 -18 8 -41
12 -50 12 -31 -38 -21 -82 16 -28 25 -39 41 -37 58 1 13 3 31 3 41 1 24 29 21
66 -7z"/>
<path d="M3929 2727 c-35 -31 -49 -76 -55 -187 -7 -116 -23 -154 -25 -60 -1
36 0 77 1 92 2 34 -18 105 -32 114 -6 4 -24 -8 -40 -27 l-30 -34 7 -195 c4
-107 11 -197 16 -200 4 -3 8 -30 9 -60 0 -30 2 -75 5 -100 3 -25 5 -63 6 -85
0 -36 2 -38 14 -22 12 17 15 15 31 -31 10 -28 21 -49 25 -46 11 7 24 131 21
211 -3 79 12 106 23 42 8 -49 21 -40 29 20 7 50 12 59 26 45 10 -10 18 -78 23
-191 1 -35 5 -49 12 -42 6 6 10 13 11 17 0 4 5 32 12 62 19 92 23 138 28 337
3 128 1 194 -6 198 -6 4 -22 -1 -36 -10 -14 -9 -27 -15 -29 -13 -1 2 3 26 11
53 31 117 6 167 -57 112z m-59 -332 c0 -8 -4 -15 -10 -15 -5 0 -10 7 -10 15 0
8 5 15 10 15 6 0 10 -7 10 -15z m3 -31 c9 -9 -4 -35 -14 -28 -5 3 -9 12 -9 20
0 14 12 19 23 8z"/>
<path d="M4101 2734 c0 -11 3 -14 6 -6 3 7 2 16 -1 19 -3 4 -6 -2 -5 -13z"/>
<path d="M2766 2699 c-17 -109 -21 -201 -19 -434 1 -143 7 -292 13 -330 6 -39
15 -102 20 -141 20 -164 173 -382 287 -410 13 -4 23 -10 23 -14 0 -8 90 -36
104 -32 5 2 12 -2 16 -8 4 -6 52 -16 106 -22 82 -10 115 -9 194 5 151 25 199
35 212 44 7 4 19 8 26 9 7 1 31 18 52 38 22 20 45 36 51 36 6 0 16 6 24 13 7
6 34 30 59 52 25 22 46 46 46 55 0 9 8 23 18 32 27 26 42 46 42 58 0 5 4 10 9
10 16 0 65 155 54 173 -3 4 0 29 6 55 18 79 21 129 22 322 0 209 -5 348 -15
357 -3 4 -6 38 -7 77 0 52 -3 64 -9 45 -4 -15 -8 -132 -8 -260 -1 -226 -4
-293 -19 -389 -4 -25 -6 -49 -5 -53 8 -29 -44 -221 -86 -317 -34 -78 -194
-206 -304 -243 -91 -31 -281 -42 -398 -24 -47 7 -155 50 -195 78 -105 72 -189
203 -206 325 -5 36 -12 70 -14 75 -3 4 -10 95 -15 201 -16 307 -52 624 -74
645 -3 3 -7 -10 -10 -28z"/>
</g>
</svg>
